<?xml version="1.0" encoding="UTF-8"?>
<!DOCTYPE svg PUBLIC "-//W3C//DTD SVG 1.1//EN" "http://www.w3.org/Graphics/SVG/1.1/DTD/svg11.dtd">
<!-- Creator: CorelDRAW -->
<svg xmlns="http://www.w3.org/2000/svg" xml:space="preserve" width="6.82666in" height="6.82666in" style="shape-rendering:geometricPrecision; text-rendering:geometricPrecision; image-rendering:optimizeQuality; fill-rule:evenodd; clip-rule:evenodd"
viewBox="0 0 6.82666 6.82666"
 xmlns:xlink="http://www.w3.org/1999/xlink">
 <defs>
  <style type="text/css">
   <![CDATA[
    .fil2 {fill:none}
    .fil1 {fill:gray}
    .fil0 {fill:#A4A4A4;fill-rule:nonzero}
   ]]>
  </style>
 </defs>
 <g id="Layer_x0020_1">
  <metadata id="CorelCorpID_0Corel-Layer"/>
  <g id="_274236984">
   <path id="_274239216" class="fil0" d="M0.939776 3.79038c0.0178307,-0.0509016 0.0483346,-0.124732 0.0787677,-0.198402 0.0366181,-0.0886378 0.0731378,-0.177024 0.0819488,-0.201272 0.257354,-0.707949 0.740146,-1.11639 1.28668,-1.57876 0.119205,-0.10085 0.241571,-0.204366 0.369496,-0.318173 0.0564803,-0.0502323 0.106358,-0.131138 0.150657,-0.203 0.157685,-0.255791 0.382689,-0.359169 0.683362,-0.416969 0.184587,-0.0354803 0.359646,-0.0242441 0.501398,0.034315 0.0698071,0.0287441 0.131,0.0819291 0.180551,0.150079 0.0648189,0.0891378 0.111709,0.207205 0.13152,0.328315 0.020122,0.122996 0.0125394,0.251579 -0.032063,0.359898 -0.0301457,0.0732087 -0.0765906,0.137098 -0.141957,0.184673 0.000350394,0.000488189 -0.00926772,0.00621654 -0.0103071,0.00680315 -0.157551,0.106815 -0.353657,0.0620866 -0.540449,0.0194528 -0.142673,-0.032563 -0.277622,-0.0633622 -0.317602,-0.00387008 -0.061815,0.0919803 -0.133193,0.299244 -0.21628,0.5405 -0.0859882,0.249689 -0.184039,0.53435 -0.304701,0.783819 0.138413,-0.00305512 0.279925,0.00996457 0.416941,0.0404843 0.156894,0.0349528 0.308161,0.092874 0.442724,0.175906 0.0364252,-0.0350591 0.0797756,-0.067122 0.128882,-0.0960945 0.217402,-0.128272 0.563295,-0.202606 0.909953,-0.207752 0.347843,-0.00516535 0.701886,0.0593543 0.935012,0.208886 0.0701299,0.0449803 0.23015,0.175886 0.228791,0.26926l0 2.19817c0,0.0589094 -0.0477598,0.106669 -0.106669,0.106669l-0.828008 0c-0.0434409,0 -0.0808189,-0.0259764 -0.0974528,-0.0632402 -0.0492323,-0.0848898 -0.106618,-0.150283 -0.177378,-0.230917 -0.0614764,-0.0700591 -0.132217,-0.150673 -0.213772,-0.259846 -0.219087,-0.29324 -0.347425,-0.283256 -0.64989,-0.25972 -0.21161,0.0164685 -0.496913,0.0386693 -0.927106,-0.00943307 -0.481547,-0.0538543 -0.968181,-0.234209 -1.33491,-0.46726 -0.377406,-0.239831 -0.633654,-0.541689 -0.643913,-0.832224 -0.00918504,0 0.0123268,-0.0547913 0.0157756,-0.0602953z"/>
   <path id="_274239240" class="fil1" d="M1.90422 3.75468c0.154874,-0.274654 0.592996,-0.461717 1.10929,-0.444425 0.131311,0.00439764 0.257567,0.0216732 0.375394,0.049685 -0.139374,-0.0448819 -0.296799,-0.0726772 -0.463437,-0.0780157 -0.517315,-0.0165748 -0.945811,0.188988 -1.02125,0.472756z"/>
   <path id="_274238496" class="fil1" d="M3.99229 3.89888c-0.0145669,-0.252705 -0.301031,-0.474406 -0.695768,-0.565488 0.0315709,0.00801969 0.0623937,0.0168858 0.0923819,0.0265433 -0.043874,-0.0104291 -0.0889213,-0.019374 -0.134961,-0.0267165 0.382134,0.10013 0.668555,0.314331 0.738346,0.565661z"/>
   <path id="_274238328" class="fil1" d="M4.35362 5.27065c-0.14161,-0.287146 -0.416492,-0.155661 -0.684209,-0.437106 -0.0790197,-0.0830709 -0.179358,-0.235102 -0.265224,-0.336839l0.0981929 0.0998228c0.221701,0.240961 0.223409,0.238457 0.490161,0.381146 0.161189,0.0862205 0.287031,0.110862 0.361079,0.292976z"/>
   <path id="_274238304" class="fil1" d="M3.88565 5.14466c-0.332232,0.00867323 -0.679272,0.00674016 -0.946941,-0.214618 -0.196496,-0.162492 -0.394874,-0.298433 -0.564953,-0.491835 0.129016,0.131846 0.260504,0.225075 0.413354,0.327492 0.429736,0.287945 0.568669,0.36513 1.09854,0.378961z"/>
   <path id="_274238616" class="fil1" d="M5.49204 3.31779c-0.154689,-0.0544646 -0.456579,0.00707087 -0.621614,0.0469685 -0.14335,0.0346575 -0.197453,0.121295 -0.215327,0.259008 0.0024685,-0.0648307 0.0018937,-0.100161 0.0349213,-0.159902 0.128602,-0.232598 0.615012,-0.231646 0.80202,-0.146075z"/>
   <path id="_274238880" class="fil1" d="M4.71075 5.27904c0.241272,0.143988 0.363228,0.163768 0.594386,0.272437 0.215161,0.10115 0.22289,0.0938504 0.463949,0.110898l-0.142961 0.00194488c-0.358354,-0.00801575 -0.63222,-0.182941 -0.915374,-0.38528z"/>
   <path id="_274237920" class="fil1" d="M3.49965 1.90051c-0.2395,-0.11372 -0.485201,0.0556969 -0.694024,0.161937l0.130409 -0.0901102 0.127772 -0.100472c0.117343,-0.0904134 0.318677,-0.0456772 0.435843,0.0286457z"/>
   <path id="_274238160" class="fil1" d="M2.73044 2.02196c-0.125571,0.256378 -0.12076,0.333055 -0.156315,0.605232 -0.0199843,0.152965 -0.0814252,0.222902 -0.154071,0.366051 -0.0689291,0.135823 -0.177213,0.17098 -0.314232,0.225906 0.12213,-0.0585433 0.234768,-0.103669 0.286256,-0.235787 0.131807,-0.338209 0.161858,-0.654732 0.338362,-0.961402z"/>
   <path id="_274237848" class="fil1" d="M4.14741 1.19493c-0.0579567,-0.0251181 -0.288248,-0.0574449 -0.342969,-0.0400276l-0.0176142 0.00710236 -0.0153465 0.00979134c0.110953,-0.113843 0.262425,-0.0615354 0.375929,0.0231339z"/>
   <path id="_274237728" class="fil1" d="M4.13584 1.40313c-0.0715394,-0.041248 -0.149854,-0.0361299 -0.256134,-0.0748228 -0.0129134,-0.00470472 -0.0851378,-0.0303071 -0.0966614,-0.000362205 0.00053937,-0.00406299 0.00125197,-0.00703937 0.00405906,-0.0102874 0.0668031,-0.0773031 0.292276,0.0313819 0.348736,0.0854724z"/>
   <path id="_274237368" class="fil1" d="M4.08379 1.53615c-0.0549055,-0.035378 -0.0719606,-0.0392598 -0.134437,-0.0237874 -0.0469016,-0.0302362 -0.0782047,-0.0379055 -0.125823,-0.00512992 0.036063,-0.0475079 0.0826457,-0.0540984 0.137547,-0.0731063 0.0561969,0.0386024 0.0798465,0.047874 0.122713,0.102024z"/>
   <path id="_274237272" class="fil1" d="M4.08379 1.69809c0,0 -0.174748,0.012937 -0.174748,0.012937l-0.0889764 -0.0155748 -0.112205 0.00842126c0.235406,-0.0889055 0.15702,-0.0542717 0.375929,-0.00578346z"/>
  </g>
  <rect class="fil2" width="6.82666" height="6.82666"/>
 </g>
</svg>
